<svg width="310" height="74" viewBox="0 0 310 74" fill="none" xmlns="http://www.w3.org/2000/svg">
<rect x="0.5" y="0.5" width="309" height="73" rx="3.5" stroke="#4C58A7"/>
<path d="M98.84 45.16C97.4933 45.16 96.32 44.8667 95.32 44.28C94.3333 43.6933 93.5733 42.8533 93.04 41.76C92.5067 40.6533 92.24 39.3533 92.24 37.86C92.24 36.3667 92.5067 35.08 93.04 34C93.5733 32.9067 94.3333 32.0667 95.32 31.48C96.32 30.8933 97.4933 30.6 98.84 30.6C99.8267 30.6 100.727 30.7533 101.54 31.06C102.367 31.3533 103.08 31.8 103.68 32.4L103.06 33.66C102.38 33.0733 101.707 32.6533 101.04 32.4C100.387 32.1467 99.66 32.02 98.86 32.02C97.3 32.02 96.0867 32.5267 95.22 33.54C94.3667 34.5533 93.94 35.9933 93.94 37.86C93.94 39.74 94.3667 41.1933 95.22 42.22C96.0733 43.2333 97.2867 43.74 98.86 43.74C99.66 43.74 100.387 43.6133 101.04 43.36C101.707 43.1067 102.38 42.6867 103.06 42.1L103.68 43.36C103.08 43.96 102.367 44.4133 101.54 44.72C100.727 45.0133 99.8267 45.16 98.84 45.16ZM110.197 45.14C109.25 45.14 108.417 44.9267 107.697 44.5C106.977 44.0733 106.417 43.4667 106.017 42.68C105.63 41.8933 105.437 40.9733 105.437 39.92C105.437 38.8667 105.63 37.9467 106.017 37.16C106.417 36.3733 106.977 35.7667 107.697 35.34C108.417 34.9133 109.25 34.7 110.197 34.7C111.143 34.7 111.977 34.9133 112.697 35.34C113.417 35.7667 113.97 36.3733 114.357 37.16C114.757 37.9467 114.957 38.8667 114.957 39.92C114.957 40.9733 114.757 41.8933 114.357 42.68C113.97 43.4667 113.417 44.0733 112.697 44.5C111.977 44.9267 111.143 45.14 110.197 45.14ZM110.197 43.8C111.197 43.8 111.963 43.4733 112.497 42.82C113.03 42.1533 113.297 41.1867 113.297 39.92C113.297 38.6933 113.023 37.7467 112.477 37.08C111.93 36.4 111.17 36.06 110.197 36.06C109.21 36.06 108.443 36.4 107.897 37.08C107.35 37.7467 107.077 38.6933 107.077 39.92C107.077 41.1867 107.343 42.1533 107.877 42.82C108.423 43.4733 109.197 43.8 110.197 43.8ZM122.502 34.7C124.915 34.7 126.122 36.0267 126.122 38.68V45H124.502V38.76C124.502 37.8267 124.315 37.1467 123.942 36.72C123.569 36.28 122.982 36.06 122.182 36.06C121.249 36.06 120.502 36.3467 119.942 36.92C119.382 37.4933 119.102 38.2667 119.102 39.24V45H117.482V37.76C117.482 36.72 117.429 35.78 117.322 34.94H118.862L119.022 36.74C119.329 36.0867 119.789 35.5867 120.402 35.24C121.015 34.88 121.715 34.7 122.502 34.7ZM131.341 36.22V41.72C131.341 42.4667 131.494 42.9933 131.801 43.3C132.108 43.5933 132.541 43.74 133.101 43.74C133.474 43.74 133.834 43.68 134.181 43.56V44.94C133.768 45.0733 133.301 45.14 132.781 45.14C131.821 45.14 131.068 44.8733 130.521 44.34C129.988 43.7933 129.721 42.9933 129.721 41.94V36.22H127.761V34.94H129.721V32.36L131.341 31.78V34.94H134.221V36.22H131.341ZM145.033 34.94V45H143.433V43.18C143.14 43.8067 142.693 44.2933 142.093 44.64C141.507 44.9733 140.82 45.14 140.033 45.14C139.14 45.14 138.353 44.9267 137.673 44.5C137.007 44.0733 136.487 43.4733 136.113 42.7C135.753 41.9133 135.573 41 135.573 39.96C135.573 38.92 135.76 38.0067 136.133 37.22C136.507 36.42 137.027 35.8 137.693 35.36C138.373 34.92 139.153 34.7 140.033 34.7C140.82 34.7 141.507 34.8733 142.093 35.22C142.68 35.5667 143.127 36.0533 143.433 36.68V34.94H145.033ZM140.353 43.8C141.34 43.8 142.1 43.4667 142.633 42.8C143.167 42.12 143.433 41.16 143.433 39.92C143.433 38.68 143.167 37.7267 142.633 37.06C142.1 36.3933 141.34 36.06 140.353 36.06C139.367 36.06 138.593 36.4067 138.033 37.1C137.487 37.78 137.213 38.7333 137.213 39.96C137.213 41.1867 137.487 42.1333 138.033 42.8C138.58 43.4667 139.353 43.8 140.353 43.8ZM153.185 34.7C154.065 34.7 154.845 34.9133 155.525 35.34C156.205 35.7667 156.732 36.3733 157.105 37.16C157.479 37.9333 157.665 38.84 157.665 39.88C157.665 40.92 157.479 41.84 157.105 42.64C156.732 43.4267 156.205 44.04 155.525 44.48C154.845 44.92 154.065 45.14 153.185 45.14C152.399 45.14 151.712 44.9667 151.125 44.62C150.539 44.2733 150.092 43.78 149.785 43.14V45H148.165V30.28H149.785V36.72C150.079 36.0667 150.519 35.5667 151.105 35.22C151.705 34.8733 152.399 34.7 153.185 34.7ZM152.885 43.8C153.859 43.8 154.619 43.46 155.165 42.78C155.712 42.0867 155.985 41.12 155.985 39.88C155.985 38.6667 155.712 37.7267 155.165 37.06C154.632 36.3933 153.872 36.06 152.885 36.06C151.885 36.06 151.119 36.3933 150.585 37.06C150.052 37.7267 149.785 38.68 149.785 39.92C149.785 41.16 150.052 42.12 150.585 42.8C151.119 43.4667 151.885 43.8 152.885 43.8ZM160.158 34.94H161.778V45H160.158V34.94ZM161.978 30.68V32.52H159.998V30.68H161.978ZM164.923 30.28H166.543V45H164.923V30.28ZM169.689 34.94H171.309V45H169.689V34.94ZM171.509 30.68V32.52H169.529V30.68H171.509ZM183.315 30.28V45H181.715V43.18C181.421 43.8067 180.975 44.2933 180.375 44.64C179.788 44.9733 179.101 45.14 178.315 45.14C177.435 45.14 176.655 44.92 175.975 44.48C175.308 44.04 174.788 43.4267 174.415 42.64C174.041 41.84 173.855 40.92 173.855 39.88C173.855 38.84 174.035 37.9333 174.395 37.16C174.768 36.3733 175.295 35.7667 175.975 35.34C176.655 34.9133 177.435 34.7 178.315 34.7C179.101 34.7 179.788 34.8733 180.375 35.22C180.961 35.5533 181.401 36.0267 181.695 36.64V30.28H183.315ZM178.635 43.8C179.621 43.8 180.381 43.4667 180.915 42.8C181.448 42.12 181.715 41.16 181.715 39.92C181.715 38.6933 181.448 37.7467 180.915 37.08C180.381 36.4 179.621 36.06 178.635 36.06C177.648 36.06 176.875 36.3933 176.315 37.06C175.768 37.7267 175.495 38.6667 175.495 39.88C175.495 41.12 175.768 42.0867 176.315 42.78C176.875 43.46 177.648 43.8 178.635 43.8ZM195.307 34.94V45H193.707V43.18C193.413 43.8067 192.967 44.2933 192.367 44.64C191.78 44.9733 191.093 45.14 190.307 45.14C189.413 45.14 188.627 44.9267 187.947 44.5C187.28 44.0733 186.76 43.4733 186.387 42.7C186.027 41.9133 185.847 41 185.847 39.96C185.847 38.92 186.033 38.0067 186.407 37.22C186.78 36.42 187.3 35.8 187.967 35.36C188.647 34.92 189.427 34.7 190.307 34.7C191.093 34.7 191.78 34.8733 192.367 35.22C192.953 35.5667 193.4 36.0533 193.707 36.68V34.94H195.307ZM190.627 43.8C191.613 43.8 192.373 43.4667 192.907 42.8C193.44 42.12 193.707 41.16 193.707 39.92C193.707 38.68 193.44 37.7267 192.907 37.06C192.373 36.3933 191.613 36.06 190.627 36.06C189.64 36.06 188.867 36.4067 188.307 37.1C187.76 37.78 187.487 38.7333 187.487 39.96C187.487 41.1867 187.76 42.1333 188.307 42.8C188.853 43.4667 189.627 43.8 190.627 43.8ZM207.299 30.28V45H205.699V43.18C205.406 43.8067 204.959 44.2933 204.359 44.64C203.772 44.9733 203.086 45.14 202.299 45.14C201.419 45.14 200.639 44.92 199.959 44.48C199.292 44.04 198.772 43.4267 198.399 42.64C198.026 41.84 197.839 40.92 197.839 39.88C197.839 38.84 198.019 37.9333 198.379 37.16C198.752 36.3733 199.279 35.7667 199.959 35.34C200.639 34.9133 201.419 34.7 202.299 34.7C203.086 34.7 203.772 34.8733 204.359 35.22C204.946 35.5533 205.386 36.0267 205.679 36.64V30.28H207.299ZM202.619 43.8C203.606 43.8 204.366 43.4667 204.899 42.8C205.432 42.12 205.699 41.16 205.699 39.92C205.699 38.6933 205.432 37.7467 204.899 37.08C204.366 36.4 203.606 36.06 202.619 36.06C201.632 36.06 200.859 36.3933 200.299 37.06C199.752 37.7267 199.479 38.6667 199.479 39.88C199.479 41.12 199.752 42.0867 200.299 42.78C200.859 43.46 201.632 43.8 202.619 43.8ZM218.851 39.92H211.471C211.484 41.2 211.778 42.1667 212.351 42.82C212.938 43.4733 213.784 43.8 214.891 43.8C216.064 43.8 217.144 43.4067 218.131 42.62L218.671 43.8C218.231 44.2133 217.664 44.54 216.971 44.78C216.291 45.02 215.591 45.14 214.871 45.14C213.298 45.14 212.064 44.68 211.171 43.76C210.278 42.8267 209.831 41.5533 209.831 39.94C209.831 38.9133 210.031 38.0067 210.431 37.22C210.831 36.42 211.391 35.8 212.111 35.36C212.831 34.92 213.651 34.7 214.571 34.7C215.904 34.7 216.951 35.14 217.711 36.02C218.471 36.8867 218.851 38.0867 218.851 39.62V39.92ZM214.591 35.96C213.751 35.96 213.064 36.2133 212.531 36.72C212.011 37.2267 211.678 37.94 211.531 38.86H217.391C217.311 37.9133 217.031 37.1933 216.551 36.7C216.084 36.2067 215.431 35.96 214.591 35.96Z" fill="#4C58A7"/>
<g clip-path="url(#clip0)">
<path d="M59.5597 44.1194H56.7123V26.7124C56.7123 26.4692 56.5152 26.272 56.272 26.272H51.5753C51.3321 26.272 51.135 26.4692 51.135 26.7124V44.1194H47.7887V31.8787C47.7887 31.6355 47.5915 31.4384 47.3483 31.4384H42.6517C42.4085 31.4384 42.2113 31.6355 42.2113 31.8787V44.1194H38.865V34.227C38.865 33.9838 38.6679 33.7867 38.4247 33.7867H33.728C33.4848 33.7867 33.2877 33.9838 33.2877 34.227V44.1193H30.4403C30.1971 44.1193 30 44.3165 30 44.5597C30 44.8028 30.1971 45 30.4403 45H59.5597C59.8029 45 60 44.8028 60 44.5597C59.9999 44.3165 59.8029 44.1194 59.5597 44.1194ZM37.9843 44.1194H34.1683V34.6673H37.9843V44.1194ZM46.908 44.1194H43.092V32.319H46.908V44.1194ZM55.8317 44.1194H52.0157V27.1527H55.8317V44.1194Z" fill="#4C58A7"/>
<path d="M58.5942 15.3454C58.2974 15.0835 57.9024 14.9614 57.5099 15.0107L53.7525 15.4804C53.0066 15.5737 52.4614 16.2738 52.5547 17.0205C52.649 17.775 53.3393 18.3127 54.0948 18.2183L54.4013 18.1801C49.7897 23.5271 44.3073 26.2905 40.4332 27.6793C35.6027 29.411 31.8429 29.5592 31.8062 29.5604C31.0467 29.5841 30.4474 30.2214 30.4704 30.9811C30.4931 31.7314 31.0985 32.319 31.8488 32.319C31.8628 32.319 31.8768 32.3188 31.8911 32.3183C32.0583 32.3133 36.0439 32.1726 41.2948 30.3015C44.2466 29.2497 47.0242 27.8533 49.5502 26.1514C49.7519 26.0155 49.8053 25.7418 49.6693 25.5402C49.5335 25.3384 49.2599 25.2852 49.0581 25.421C46.5932 27.0819 43.8818 28.4449 40.9992 29.472C35.8773 31.2971 32.0259 31.4332 31.8648 31.4381L31.8488 31.4383C31.5777 31.4383 31.3588 31.2258 31.3506 30.9545C31.3422 30.6797 31.559 30.4491 31.834 30.4405C31.8724 30.4393 35.7395 30.2974 40.7304 28.5082C44.9116 27.0093 50.9194 23.9488 55.7963 17.8806C56.0392 17.5785 55.7825 17.1198 55.3986 17.1679L53.9858 17.3445C53.7409 17.3748 53.503 17.2143 53.4408 16.9751C53.3661 16.6873 53.5671 16.391 53.8619 16.3541L57.6193 15.8844C57.9127 15.8473 58.1801 16.0845 58.1801 16.3796V20.1369C58.1801 20.4121 57.9563 20.636 57.6811 20.636C57.4059 20.636 57.182 20.4122 57.182 20.1369V18.9979C57.182 18.8179 57.0657 18.6497 56.8974 18.5861C56.7235 18.5204 56.5181 18.5755 56.4006 18.7194C54.756 20.7345 52.8835 22.558 50.8349 24.1391C50.6424 24.2877 50.6067 24.5642 50.7553 24.7567C50.9039 24.9492 51.1805 24.9848 51.3729 24.8363C53.1574 23.459 54.8115 21.9027 56.3028 20.1991C56.3354 20.9311 56.9411 21.5167 57.6811 21.5167C58.4419 21.5167 59.0608 20.8978 59.0608 20.1371V16.3797C59.0607 15.9842 58.8907 15.6072 58.5942 15.3454Z" fill="#4C58A7"/>
</g>
<defs>
<clipPath id="clip0">
<rect width="30" height="30" fill="white" transform="translate(30 15)"/>
</clipPath>
</defs>
</svg>
