<svg width="310" height="74" viewBox="0 0 310 74" fill="none" xmlns="http://www.w3.org/2000/svg">
<rect x="0.5" y="0.5" width="309" height="73" rx="3.5" stroke="#4C58A7"/>
<path d="M89.76 30.76H98.76V32.12H91.38V37.08H98.36V38.46H91.38V43.64H98.76V45H89.76V30.76ZM104.718 45.14C103.024 45.14 101.684 44.7067 100.698 43.84L101.238 42.64C101.784 43.0667 102.338 43.3733 102.898 43.56C103.458 43.7467 104.084 43.84 104.778 43.84C105.538 43.84 106.111 43.7133 106.498 43.46C106.898 43.1933 107.098 42.8133 107.098 42.32C107.098 41.92 106.964 41.6 106.698 41.36C106.431 41.12 105.991 40.9333 105.378 40.8L103.678 40.4C102.838 40.2133 102.184 39.88 101.718 39.4C101.264 38.92 101.038 38.3467 101.038 37.68C101.038 36.8 101.391 36.0867 102.098 35.54C102.804 34.98 103.738 34.7 104.898 34.7C105.604 34.7 106.271 34.8133 106.898 35.04C107.524 35.2667 108.051 35.5933 108.478 36.02L107.938 37.2C106.991 36.4133 105.978 36.02 104.898 36.02C104.178 36.02 103.618 36.16 103.218 36.44C102.831 36.7067 102.638 37.0867 102.638 37.58C102.638 37.9933 102.758 38.32 102.998 38.56C103.251 38.8 103.651 38.9867 104.198 39.12L105.898 39.54C106.831 39.7533 107.524 40.0867 107.978 40.54C108.431 40.98 108.658 41.56 108.658 42.28C108.658 43.1467 108.304 43.84 107.598 44.36C106.891 44.88 105.931 45.14 104.718 45.14ZM115.46 45.14C114.486 45.14 113.633 44.9267 112.9 44.5C112.18 44.0733 111.62 43.4733 111.22 42.7C110.833 41.9133 110.64 41 110.64 39.96C110.64 38.92 110.84 38.0067 111.24 37.22C111.64 36.42 112.206 35.8 112.94 35.36C113.686 34.92 114.553 34.7 115.54 34.7C116.22 34.7 116.873 34.82 117.5 35.06C118.14 35.2867 118.666 35.6067 119.08 36.02L118.54 37.22C118.033 36.82 117.54 36.5267 117.06 36.34C116.593 36.1533 116.113 36.06 115.62 36.06C114.593 36.06 113.786 36.4067 113.2 37.1C112.613 37.78 112.32 38.7333 112.32 39.96C112.32 41.1733 112.606 42.12 113.18 42.8C113.766 43.4667 114.58 43.8 115.62 43.8C116.113 43.8 116.593 43.7067 117.06 43.52C117.54 43.3333 118.033 43.04 118.54 42.64L119.08 43.84C118.653 44.24 118.113 44.56 117.46 44.8C116.82 45.0267 116.153 45.14 115.46 45.14ZM125.822 34.7C126.155 34.7 126.462 34.74 126.742 34.82L126.702 36.3C126.395 36.1933 126.042 36.14 125.642 36.14C124.669 36.14 123.942 36.4467 123.462 37.06C122.995 37.66 122.762 38.3933 122.762 39.26V45H121.142V37.76C121.142 36.72 121.089 35.78 120.982 34.94H122.522L122.682 36.8C122.935 36.12 123.342 35.6 123.902 35.24C124.462 34.88 125.102 34.7 125.822 34.7ZM128.388 34.94H130.008V45H128.388V34.94ZM130.208 30.68V32.52H128.228V30.68H130.208ZM135.314 36.22V41.72C135.314 42.4667 135.467 42.9933 135.774 43.3C136.08 43.5933 136.514 43.74 137.074 43.74C137.447 43.74 137.807 43.68 138.154 43.56V44.94C137.74 45.0733 137.274 45.14 136.754 45.14C135.794 45.14 135.04 44.8733 134.494 44.34C133.96 43.7933 133.694 42.9933 133.694 41.94V36.22H131.734V34.94H133.694V32.36L135.314 31.78V34.94H138.194V36.22H135.314ZM144.306 45.14C143.359 45.14 142.526 44.9267 141.806 44.5C141.086 44.0733 140.526 43.4667 140.126 42.68C139.739 41.8933 139.546 40.9733 139.546 39.92C139.546 38.8667 139.739 37.9467 140.126 37.16C140.526 36.3733 141.086 35.7667 141.806 35.34C142.526 34.9133 143.359 34.7 144.306 34.7C145.253 34.7 146.086 34.9133 146.806 35.34C147.526 35.7667 148.079 36.3733 148.466 37.16C148.866 37.9467 149.066 38.8667 149.066 39.92C149.066 40.9733 148.866 41.8933 148.466 42.68C148.079 43.4667 147.526 44.0733 146.806 44.5C146.086 44.9267 145.253 45.14 144.306 45.14ZM144.306 43.8C145.306 43.8 146.073 43.4733 146.606 42.82C147.139 42.1533 147.406 41.1867 147.406 39.92C147.406 38.6933 147.133 37.7467 146.586 37.08C146.039 36.4 145.279 36.06 144.306 36.06C143.319 36.06 142.553 36.4 142.006 37.08C141.459 37.7467 141.186 38.6933 141.186 39.92C141.186 41.1867 141.453 42.1533 141.986 42.82C142.533 43.4733 143.306 43.8 144.306 43.8ZM143.726 33.64L145.726 29.56H147.606L144.866 33.64H143.726ZM156.271 34.7C156.605 34.7 156.911 34.74 157.191 34.82L157.151 36.3C156.845 36.1933 156.491 36.14 156.091 36.14C155.118 36.14 154.391 36.4467 153.911 37.06C153.445 37.66 153.211 38.3933 153.211 39.26V45H151.591V37.76C151.591 36.72 151.538 35.78 151.431 34.94H152.971L153.131 36.8C153.385 36.12 153.791 35.6 154.351 35.24C154.911 34.88 155.551 34.7 156.271 34.7ZM158.837 34.94H160.457V45H158.837V34.94ZM160.657 30.68V32.52H158.677V30.68H160.657ZM167.763 45.14C166.816 45.14 165.983 44.9267 165.263 44.5C164.543 44.0733 163.983 43.4667 163.583 42.68C163.196 41.8933 163.003 40.9733 163.003 39.92C163.003 38.8667 163.196 37.9467 163.583 37.16C163.983 36.3733 164.543 35.7667 165.263 35.34C165.983 34.9133 166.816 34.7 167.763 34.7C168.71 34.7 169.543 34.9133 170.263 35.34C170.983 35.7667 171.536 36.3733 171.923 37.16C172.323 37.9467 172.523 38.8667 172.523 39.92C172.523 40.9733 172.323 41.8933 171.923 42.68C171.536 43.4667 170.983 44.0733 170.263 44.5C169.543 44.9267 168.71 45.14 167.763 45.14ZM167.763 43.8C168.763 43.8 169.53 43.4733 170.063 42.82C170.596 42.1533 170.863 41.1867 170.863 39.92C170.863 38.6933 170.59 37.7467 170.043 37.08C169.496 36.4 168.736 36.06 167.763 36.06C166.776 36.06 166.01 36.4 165.463 37.08C164.916 37.7467 164.643 38.6933 164.643 39.92C164.643 41.1867 164.91 42.1533 165.443 42.82C165.99 43.4733 166.763 43.8 167.763 43.8ZM192.623 30.76L186.403 45H184.963L178.743 30.76H180.483L185.703 42.92L190.923 30.76H192.623ZM194.208 34.94H195.828V45H194.208V34.94ZM196.028 30.68V32.52H194.048V30.68H196.028ZM203.654 34.7C203.987 34.7 204.294 34.74 204.574 34.82L204.534 36.3C204.227 36.1933 203.874 36.14 203.474 36.14C202.501 36.14 201.774 36.4467 201.294 37.06C200.827 37.66 200.594 38.3933 200.594 39.26V45H198.974V37.76C198.974 36.72 198.921 35.78 198.814 34.94H200.354L200.514 36.8C200.767 36.12 201.174 35.6 201.734 35.24C202.294 34.88 202.934 34.7 203.654 34.7ZM209.161 36.22V41.72C209.161 42.4667 209.315 42.9933 209.621 43.3C209.928 43.5933 210.361 43.74 210.921 43.74C211.295 43.74 211.655 43.68 212.001 43.56V44.94C211.588 45.0733 211.121 45.14 210.601 45.14C209.641 45.14 208.888 44.8733 208.341 44.34C207.808 43.7933 207.541 42.9933 207.541 41.94V36.22H205.581V34.94H207.541V32.36L209.161 31.78V34.94H212.041V36.22H209.161ZM222.414 34.94V45H220.834V43.26C220.514 43.8733 220.067 44.34 219.494 44.66C218.92 44.98 218.274 45.14 217.554 45.14C216.367 45.14 215.467 44.8067 214.854 44.14C214.24 43.4733 213.934 42.4867 213.934 41.18V34.94H215.554V41.14C215.554 42.0467 215.74 42.7133 216.114 43.14C216.487 43.5667 217.054 43.78 217.814 43.78C218.707 43.78 219.427 43.4933 219.974 42.92C220.52 42.3333 220.794 41.5667 220.794 40.62V34.94H222.414ZM234.397 34.94V45H232.797V43.18C232.503 43.8067 232.057 44.2933 231.457 44.64C230.87 44.9733 230.183 45.14 229.397 45.14C228.503 45.14 227.717 44.9267 227.037 44.5C226.37 44.0733 225.85 43.4733 225.477 42.7C225.117 41.9133 224.937 41 224.937 39.96C224.937 38.92 225.123 38.0067 225.497 37.22C225.87 36.42 226.39 35.8 227.057 35.36C227.737 34.92 228.517 34.7 229.397 34.7C230.183 34.7 230.87 34.8733 231.457 35.22C232.043 35.5667 232.49 36.0533 232.797 36.68V34.94H234.397ZM229.717 43.8C230.703 43.8 231.463 43.4667 231.997 42.8C232.53 42.12 232.797 41.16 232.797 39.92C232.797 38.68 232.53 37.7267 231.997 37.06C231.463 36.3933 230.703 36.06 229.717 36.06C228.73 36.06 227.957 36.4067 227.397 37.1C226.85 37.78 226.577 38.7333 226.577 39.96C226.577 41.1867 226.85 42.1333 227.397 42.8C227.943 43.4667 228.717 43.8 229.717 43.8ZM237.529 30.28H239.149V45H237.529V30.28Z" fill="#4C58A7"/>
<mask id="path-3-inside-1" fill="white">
<rect x="31.293" y="25.6693" width="25.9535" height="18.7442" rx="1"/>
</mask>
<rect x="31.293" y="25.6693" width="25.9535" height="18.7442" rx="1" stroke="#4C58A7" stroke-width="2.4" mask="url(#path-3-inside-1)"/>
<path d="M29 46.5763H60" stroke="#4C58A7" stroke-width="1.2" stroke-linecap="round"/>
</svg>
