<svg width="310" height="74" viewBox="0 0 310 74" fill="none" xmlns="http://www.w3.org/2000/svg">
<rect x="0.5" y="0.5" width="309" height="73" rx="3.5" stroke="#4C58A7"/>
<path d="M130.76 30.76H139.56V32.14H132.38V37.08H139.16V38.46H132.38V45H130.76V30.76ZM141.83 34.94H143.45V45H141.83V34.94ZM143.65 30.68V32.52H141.67V30.68H143.65ZM149.995 45.14C148.302 45.14 146.962 44.7067 145.975 43.84L146.515 42.64C147.062 43.0667 147.615 43.3733 148.175 43.56C148.735 43.7467 149.362 43.84 150.055 43.84C150.815 43.84 151.388 43.7133 151.775 43.46C152.175 43.1933 152.375 42.8133 152.375 42.32C152.375 41.92 152.242 41.6 151.975 41.36C151.708 41.12 151.268 40.9333 150.655 40.8L148.955 40.4C148.115 40.2133 147.462 39.88 146.995 39.4C146.542 38.92 146.315 38.3467 146.315 37.68C146.315 36.8 146.668 36.0867 147.375 35.54C148.082 34.98 149.015 34.7 150.175 34.7C150.882 34.7 151.548 34.8133 152.175 35.04C152.802 35.2667 153.328 35.5933 153.755 36.02L153.215 37.2C152.268 36.4133 151.255 36.02 150.175 36.02C149.455 36.02 148.895 36.16 148.495 36.44C148.108 36.7067 147.915 37.0867 147.915 37.58C147.915 37.9933 148.035 38.32 148.275 38.56C148.528 38.8 148.928 38.9867 149.475 39.12L151.175 39.54C152.108 39.7533 152.802 40.0867 153.255 40.54C153.708 40.98 153.935 41.56 153.935 42.28C153.935 43.1467 153.582 43.84 152.875 44.36C152.168 44.88 151.208 45.14 149.995 45.14ZM160.737 45.14C159.764 45.14 158.91 44.9267 158.177 44.5C157.457 44.0733 156.897 43.4733 156.497 42.7C156.11 41.9133 155.917 41 155.917 39.96C155.917 38.92 156.117 38.0067 156.517 37.22C156.917 36.42 157.484 35.8 158.217 35.36C158.964 34.92 159.83 34.7 160.817 34.7C161.497 34.7 162.15 34.82 162.777 35.06C163.417 35.2867 163.944 35.6067 164.357 36.02L163.817 37.22C163.31 36.82 162.817 36.5267 162.337 36.34C161.87 36.1533 161.39 36.06 160.897 36.06C159.87 36.06 159.064 36.4067 158.477 37.1C157.89 37.78 157.597 38.7333 157.597 39.96C157.597 41.1733 157.884 42.12 158.457 42.8C159.044 43.4667 159.857 43.8 160.897 43.8C161.39 43.8 161.87 43.7067 162.337 43.52C162.817 43.3333 163.31 43.04 163.817 42.64L164.357 43.84C163.93 44.24 163.39 44.56 162.737 44.8C162.097 45.0267 161.43 45.14 160.737 45.14ZM175.279 34.94V45H173.679V43.18C173.386 43.8067 172.939 44.2933 172.339 44.64C171.753 44.9733 171.066 45.14 170.279 45.14C169.386 45.14 168.599 44.9267 167.919 44.5C167.253 44.0733 166.733 43.4733 166.359 42.7C165.999 41.9133 165.819 41 165.819 39.96C165.819 38.92 166.006 38.0067 166.379 37.22C166.753 36.42 167.273 35.8 167.939 35.36C168.619 34.92 169.399 34.7 170.279 34.7C171.066 34.7 171.753 34.8733 172.339 35.22C172.926 35.5667 173.373 36.0533 173.679 36.68V34.94H175.279ZM170.599 43.8C171.586 43.8 172.346 43.4667 172.879 42.8C173.413 42.12 173.679 41.16 173.679 39.92C173.679 38.68 173.413 37.7267 172.879 37.06C172.346 36.3933 171.586 36.06 170.599 36.06C169.613 36.06 168.839 36.4067 168.279 37.1C167.733 37.78 167.459 38.7333 167.459 39.96C167.459 41.1867 167.733 42.1333 168.279 42.8C168.826 43.4667 169.599 43.8 170.599 43.8ZM178.412 30.28H180.032V45H178.412V30.28Z" fill="#4C58A7"/>
<path d="M44.1543 44.3596L49.9661 38.5479L50.651 39.2328L44.8392 45.0445L44.1543 44.3596Z" fill="#4C58A7"/>
<path d="M45.4688 41.3125C46.2699 41.3125 46.9219 40.6605 46.9219 39.8594C46.9219 39.0582 46.2699 38.4062 45.4688 38.4062C44.6676 38.4062 44.0156 39.0582 44.0156 39.8594C44.0156 40.6605 44.6676 41.3125 45.4688 41.3125ZM45.4688 39.375C45.7361 39.375 45.9531 39.592 45.9531 39.8594C45.9531 40.1267 45.7361 40.3438 45.4688 40.3438C45.2014 40.3438 44.9844 40.1267 44.9844 39.8594C44.9844 39.592 45.2014 39.375 45.4688 39.375Z" fill="#4C58A7"/>
<path d="M49.3438 42.2812C48.5426 42.2812 47.8906 42.9332 47.8906 43.7344C47.8906 44.5355 48.5426 45.1875 49.3438 45.1875C50.1449 45.1875 50.7969 44.5355 50.7969 43.7344C50.7969 42.9332 50.1449 42.2812 49.3438 42.2812ZM49.3438 44.2188C49.0764 44.2188 48.8594 44.0017 48.8594 43.7344C48.8594 43.467 49.0764 43.25 49.3438 43.25C49.6111 43.25 49.8281 43.467 49.8281 43.7344C49.8281 44.0017 49.6111 44.2188 49.3438 44.2188Z" fill="#4C58A7"/>
<path d="M34.3281 30.1719H51.7656V31.1406H34.3281V30.1719Z" fill="#4C58A7"/>
<path d="M34.3281 32.1094H40.625V33.0781H34.3281V32.1094Z" fill="#4C58A7"/>
<path d="M41.5938 32.1094H42.5625V33.0781H41.5938V32.1094Z" fill="#4C58A7"/>
<path d="M34.3281 34.0469H42.5625V35.0156H34.3281V34.0469Z" fill="#4C58A7"/>
<path d="M34.3281 35.9844H35.2969V36.9531H34.3281V35.9844Z" fill="#4C58A7"/>
<path d="M36.2656 35.9844H42.5625V36.9531H36.2656V35.9844Z" fill="#4C58A7"/>
<path d="M34.3281 37.9219H39.1719V38.8906H34.3281V37.9219Z" fill="#4C58A7"/>
<path d="M53.7031 23.875V20.4844H32.3906V41.6797C32.3906 42.1897 32.5975 42.6891 32.9583 43.0495L35.7812 45.8724V50.5156H56.6094V23.875H53.7031ZM33.3594 21.4531H52.7344V46.6406H38.6875V41.7969H33.371C33.3662 41.7576 33.3594 41.7189 33.3594 41.6797V21.4531ZM37.7188 46.4251C37.6907 46.4028 37.6611 46.3825 37.6354 46.3568L34.0443 42.7656H37.7188V46.4251ZM55.6406 49.5469H36.75V46.8412L36.9505 47.0417C37.3109 47.4025 37.8103 47.6094 38.3203 47.6094H53.7031V24.8438H55.6406V49.5469Z" fill="#4C58A7"/>
<path d="M47.8906 28.3957L48.8594 27.1038L49.8281 28.3957V29.2031H50.7969V28.0731L49.4648 26.2969L50.7969 24.5207V23.3906H49.8281V24.1981L48.8594 25.4899L47.8906 24.1981V23.3906H46.9219V24.5207L48.2539 26.2969L46.9219 28.0731V29.2031H47.8906V28.3957Z" fill="#4C58A7"/>
<path d="M42.0781 28.2344H44.0156V29.2031H44.9844V27.75L43.9095 23.3906H42.1842L41.1244 27.6328L41.1094 29.2031H42.0781V28.2344ZM43.153 24.3594L43.8795 27.2656H42.2142L42.9408 24.3594H43.153Z" fill="#4C58A7"/>
<path d="M37.2344 29.2031H38.2031V24.3594H40.1406V23.3906H35.2969V24.3594H37.2344V29.2031Z" fill="#4C58A7"/>
</svg>
