<svg width="310" height="74" viewBox="0 0 310 74" fill="none" xmlns="http://www.w3.org/2000/svg">
<rect x="0.5" y="0.5" width="309" height="73" rx="3.5" stroke="#4C58A7"/>
<path d="M120.76 30.76H126.44C127.907 30.76 129.047 31.1133 129.86 31.82C130.687 32.5267 131.1 33.5 131.1 34.74C131.1 35.98 130.687 36.96 129.86 37.68C129.033 38.3867 127.893 38.74 126.44 38.74H122.4V45H120.76V30.76ZM126.3 37.38C127.353 37.38 128.147 37.1533 128.68 36.7C129.213 36.2467 129.48 35.5933 129.48 34.74C129.48 33.8867 129.213 33.24 128.68 32.8C128.147 32.3467 127.353 32.12 126.3 32.12H122.4V37.38H126.3ZM141.695 39.92H134.315C134.328 41.2 134.622 42.1667 135.195 42.82C135.782 43.4733 136.628 43.8 137.735 43.8C138.908 43.8 139.988 43.4067 140.975 42.62L141.515 43.8C141.075 44.2133 140.508 44.54 139.815 44.78C139.135 45.02 138.435 45.14 137.715 45.14C136.142 45.14 134.908 44.68 134.015 43.76C133.122 42.8267 132.675 41.5533 132.675 39.94C132.675 38.9133 132.875 38.0067 133.275 37.22C133.675 36.42 134.235 35.8 134.955 35.36C135.675 34.92 136.495 34.7 137.415 34.7C138.748 34.7 139.795 35.14 140.555 36.02C141.315 36.8867 141.695 38.0867 141.695 39.62V39.92ZM137.435 35.96C136.595 35.96 135.908 36.2133 135.375 36.72C134.855 37.2267 134.522 37.94 134.375 38.86H140.235C140.155 37.9133 139.875 37.1933 139.395 36.7C138.928 36.2067 138.275 35.96 137.435 35.96ZM147.554 45.14C145.86 45.14 144.52 44.7067 143.534 43.84L144.074 42.64C144.62 43.0667 145.174 43.3733 145.734 43.56C146.294 43.7467 146.92 43.84 147.614 43.84C148.374 43.84 148.947 43.7133 149.334 43.46C149.734 43.1933 149.934 42.8133 149.934 42.32C149.934 41.92 149.8 41.6 149.534 41.36C149.267 41.12 148.827 40.9333 148.214 40.8L146.514 40.4C145.674 40.2133 145.02 39.88 144.554 39.4C144.1 38.92 143.874 38.3467 143.874 37.68C143.874 36.8 144.227 36.0867 144.934 35.54C145.64 34.98 146.574 34.7 147.734 34.7C148.44 34.7 149.107 34.8133 149.734 35.04C150.36 35.2667 150.887 35.5933 151.314 36.02L150.774 37.2C149.827 36.4133 148.814 36.02 147.734 36.02C147.014 36.02 146.454 36.16 146.054 36.44C145.667 36.7067 145.474 37.0867 145.474 37.58C145.474 37.9933 145.594 38.32 145.834 38.56C146.087 38.8 146.487 38.9867 147.034 39.12L148.734 39.54C149.667 39.7533 150.36 40.0867 150.814 40.54C151.267 40.98 151.494 41.56 151.494 42.28C151.494 43.1467 151.14 43.84 150.434 44.36C149.727 44.88 148.767 45.14 147.554 45.14ZM157.476 45.14C155.782 45.14 154.442 44.7067 153.456 43.84L153.996 42.64C154.542 43.0667 155.096 43.3733 155.656 43.56C156.216 43.7467 156.842 43.84 157.536 43.84C158.296 43.84 158.869 43.7133 159.256 43.46C159.656 43.1933 159.856 42.8133 159.856 42.32C159.856 41.92 159.722 41.6 159.456 41.36C159.189 41.12 158.749 40.9333 158.136 40.8L156.436 40.4C155.596 40.2133 154.942 39.88 154.476 39.4C154.022 38.92 153.796 38.3467 153.796 37.68C153.796 36.8 154.149 36.0867 154.856 35.54C155.562 34.98 156.496 34.7 157.656 34.7C158.362 34.7 159.029 34.8133 159.656 35.04C160.282 35.2667 160.809 35.5933 161.236 36.02L160.696 37.2C159.749 36.4133 158.736 36.02 157.656 36.02C156.936 36.02 156.376 36.16 155.976 36.44C155.589 36.7067 155.396 37.0867 155.396 37.58C155.396 37.9933 155.516 38.32 155.756 38.56C156.009 38.8 156.409 38.9867 156.956 39.12L158.656 39.54C159.589 39.7533 160.282 40.0867 160.736 40.54C161.189 40.98 161.416 41.56 161.416 42.28C161.416 43.1467 161.062 43.84 160.356 44.36C159.649 44.88 158.689 45.14 157.476 45.14ZM168.158 45.14C167.211 45.14 166.378 44.9267 165.658 44.5C164.938 44.0733 164.378 43.4667 163.978 42.68C163.591 41.8933 163.398 40.9733 163.398 39.92C163.398 38.8667 163.591 37.9467 163.978 37.16C164.378 36.3733 164.938 35.7667 165.658 35.34C166.378 34.9133 167.211 34.7 168.158 34.7C169.104 34.7 169.938 34.9133 170.658 35.34C171.378 35.7667 171.931 36.3733 172.318 37.16C172.718 37.9467 172.918 38.8667 172.918 39.92C172.918 40.9733 172.718 41.8933 172.318 42.68C171.931 43.4667 171.378 44.0733 170.658 44.5C169.938 44.9267 169.104 45.14 168.158 45.14ZM168.158 43.8C169.158 43.8 169.924 43.4733 170.458 42.82C170.991 42.1533 171.258 41.1867 171.258 39.92C171.258 38.6933 170.984 37.7467 170.438 37.08C169.891 36.4 169.131 36.06 168.158 36.06C167.171 36.06 166.404 36.4 165.858 37.08C165.311 37.7467 165.038 38.6933 165.038 39.92C165.038 41.1867 165.304 42.1533 165.838 42.82C166.384 43.4733 167.158 43.8 168.158 43.8ZM184.303 34.94V45H182.703V43.18C182.409 43.8067 181.963 44.2933 181.363 44.64C180.776 44.9733 180.089 45.14 179.303 45.14C178.409 45.14 177.623 44.9267 176.943 44.5C176.276 44.0733 175.756 43.4733 175.383 42.7C175.023 41.9133 174.843 41 174.843 39.96C174.843 38.92 175.029 38.0067 175.403 37.22C175.776 36.42 176.296 35.8 176.963 35.36C177.643 34.92 178.423 34.7 179.303 34.7C180.089 34.7 180.776 34.8733 181.363 35.22C181.949 35.5667 182.396 36.0533 182.703 36.68V34.94H184.303ZM179.623 43.8C180.609 43.8 181.369 43.4667 181.903 42.8C182.436 42.12 182.703 41.16 182.703 39.92C182.703 38.68 182.436 37.7267 181.903 37.06C181.369 36.3933 180.609 36.06 179.623 36.06C178.636 36.06 177.863 36.4067 177.303 37.1C176.756 37.78 176.483 38.7333 176.483 39.96C176.483 41.1867 176.756 42.1333 177.303 42.8C177.849 43.4667 178.623 43.8 179.623 43.8ZM187.435 30.28H189.055V45H187.435V30.28Z" fill="#4C58A7"/>
<path d="M59.2701 33.5562C60.295 32.8359 60.9737 31.6379 60.9737 30.2875C60.9737 28.0783 59.187 26.2916 56.9778 26.2916C54.7687 26.2916 52.982 28.0783 52.982 30.2875C52.982 31.6379 53.6537 32.8359 54.6856 33.5562C53.8061 33.8609 53.0028 34.3318 52.3241 34.9412C51.3892 34.1448 50.2881 33.5354 49.0831 33.1753C50.5443 32.2889 51.5277 30.6753 51.5277 28.8401C51.5277 26.0423 49.2632 23.7778 46.4654 23.7778C43.6676 23.7778 41.403 26.0492 41.403 28.8401C41.403 30.6753 42.3795 32.2889 43.8476 33.1753C42.6565 33.5354 41.5693 34.1379 40.6413 34.9204C39.9626 34.3249 39.1731 33.8609 38.3075 33.5631C39.3324 32.8429 40.0111 31.6448 40.0111 30.2944C40.0111 28.0853 38.2244 26.2985 36.0152 26.2985C33.8061 26.2985 32.0194 28.0853 32.0194 30.2944C32.0194 31.6448 32.6911 32.8429 33.723 33.5631C30.9737 34.5118 29 37.1227 29 40.1905V40.6476C29 40.6614 29.0139 40.6753 29.0277 40.6753H37.4972C37.4488 41.0562 37.4211 41.4509 37.4211 41.8456V42.3166C37.4211 44.3526 39.0693 46.0008 41.1053 46.0008H51.8393C53.8753 46.0008 55.5235 44.3526 55.5235 42.3166V41.8456C55.5235 41.4509 55.4958 41.0562 55.4474 40.6753H63.9723C63.9861 40.6753 64 40.6614 64 40.6476V40.1905C63.9861 37.1157 62.0194 34.5049 59.2701 33.5562ZM54.09 30.2805C54.09 28.6877 55.385 27.3927 56.9778 27.3927C58.5706 27.3927 59.8657 28.6877 59.8657 30.2805C59.8657 31.8526 58.5983 33.1337 57.0332 33.1684C57.0125 33.1684 56.9986 33.1684 56.9778 33.1684C56.9571 33.1684 56.9432 33.1684 56.9224 33.1684C55.3504 33.1407 54.09 31.8595 54.09 30.2805ZM42.4972 28.8401C42.4972 26.6587 44.2701 24.8858 46.4515 24.8858C48.633 24.8858 50.4058 26.6587 50.4058 28.8401C50.4058 30.9454 48.7507 32.6697 46.6801 32.7875C46.6039 32.7875 46.5277 32.7875 46.4515 32.7875C46.3753 32.7875 46.2992 32.7875 46.223 32.7875C44.1524 32.6697 42.4972 30.9454 42.4972 28.8401ZM33.1066 30.2805C33.1066 28.6877 34.4017 27.3927 35.9945 27.3927C37.5873 27.3927 38.8823 28.6877 38.8823 30.2805C38.8823 31.8526 37.615 33.1337 36.0499 33.1684C36.0291 33.1684 36.0152 33.1684 35.9945 33.1684C35.9737 33.1684 35.9598 33.1684 35.9391 33.1684C34.374 33.1407 33.1066 31.8595 33.1066 30.2805ZM37.6911 39.5603H30.1219C30.4335 36.6102 32.9266 34.2972 35.9529 34.2764C35.9668 34.2764 35.9806 34.2764 35.9945 34.2764C36.0083 34.2764 36.0222 34.2764 36.036 34.2764C37.4765 34.2833 38.7922 34.8166 39.8102 35.6822C38.813 36.7625 38.072 38.0922 37.6911 39.5603ZM54.4017 42.3166C54.4017 43.7362 53.2452 44.8927 51.8255 44.8927H41.0914C39.6717 44.8927 38.5152 43.7362 38.5152 42.3166V41.8456C38.5152 37.5451 41.9501 34.0271 46.223 33.9024C46.2992 33.9094 46.3823 33.9094 46.4584 33.9094C46.5346 33.9094 46.6177 33.9094 46.6939 33.9024C50.9668 34.0271 54.4017 37.5451 54.4017 41.8456V42.3166ZM55.2258 39.5603C54.8449 38.0991 54.1177 36.7902 53.1274 35.7099C54.1524 34.8235 55.482 34.2902 56.9363 34.2764C56.9501 34.2764 56.964 34.2764 56.9778 34.2764C56.9917 34.2764 57.0055 34.2764 57.0194 34.2764C60.0457 34.2972 62.5388 36.6102 62.8504 39.5603H55.2258Z" fill="#4C58A7"/>
</svg>
