<svg width="172" height="172" viewBox="0 0 172 172" fill="none" xmlns="http://www.w3.org/2000/svg">
<g filter="url(#filter0_d)">
<circle cx="86" cy="66" r="40" fill="white"/>
</g>
<path d="M100.156 51.8151C98.3141 49.9643 96.1204 48.497 93.7029 47.4986C91.2854 46.5003 88.6925 45.9909 86.0753 46.0001C75.1085 46.0001 66.1708 54.8951 66.1607 65.8151C66.1607 69.3126 67.0799 72.715 68.8152 75.7275L66 86L76.5575 83.245C79.4782 84.8273 82.7502 85.6567 86.0753 85.6575H86.0854C97.0547 85.6575 105.99 76.7625 106 65.8326C106.002 63.2277 105.487 60.648 104.484 58.2423C103.48 55.8365 102.009 53.6522 100.154 51.8151H100.156ZM86.0753 82.3025C83.1095 82.3035 80.1981 81.509 77.6474 80.0025L77.0447 79.6425L70.7815 81.2775L72.454 75.195L72.0623 74.5675C70.4043 71.9434 69.5275 68.9051 69.5334 65.8051C69.5334 56.7401 76.9593 49.3451 86.0854 49.3451C88.2595 49.3412 90.4129 49.7658 92.4214 50.5943C94.43 51.4229 96.2539 52.639 97.788 54.1726C99.3275 55.7002 100.548 57.5162 101.379 59.5157C102.21 61.5152 102.635 63.6587 102.63 65.8226C102.62 74.92 95.1939 82.3025 86.0753 82.3025ZM95.1537 69.9676C94.659 69.7201 92.2155 68.5226 91.7559 68.3526C91.2988 68.1901 90.9648 68.1051 90.6384 68.6001C90.3044 69.0926 89.3501 70.215 89.0638 70.5375C88.7775 70.87 88.4812 70.9075 87.9839 70.6625C87.4892 70.4125 85.8845 69.8926 83.9859 68.2001C82.5043 66.8876 81.5123 65.2626 81.216 64.7701C80.9297 64.2751 81.1883 64.0101 81.437 63.7626C81.6554 63.5426 81.9317 63.1826 82.1803 62.8976C82.4314 62.6126 82.5143 62.4026 82.6775 62.0726C82.8408 61.7376 82.7629 61.4526 82.6399 61.2051C82.5143 60.9576 81.5223 58.5151 81.103 57.5301C80.7012 56.5576 80.2918 56.6926 79.9854 56.6801C79.6991 56.6626 79.3651 56.6626 79.0311 56.6626C78.7789 56.6688 78.5307 56.7269 78.3021 56.8332C78.0735 56.9394 77.8694 57.0916 77.7027 57.2801C77.2456 57.7751 75.9674 58.9726 75.9674 61.4151C75.9674 63.8576 77.7504 66.2051 78.0015 66.5376C78.2476 66.8701 81.5023 71.8675 86.4972 74.0175C87.6775 74.53 88.6067 74.8325 89.3325 75.0625C90.5254 75.4425 91.6027 75.385 92.4616 75.2625C93.4159 75.1175 95.4023 74.0625 95.8217 72.905C96.2335 71.745 96.2335 70.755 96.108 70.5476C95.9849 70.3376 95.6509 70.215 95.1537 69.9676Z" fill="#4C58A7"/>
<defs>
<filter id="filter0_d" x="0" y="0" width="172" height="172" filterUnits="userSpaceOnUse" color-interpolation-filters="sRGB">
<feFlood flood-opacity="0" result="BackgroundImageFix"/>
<feColorMatrix in="SourceAlpha" type="matrix" values="0 0 0 0 0 0 0 0 0 0 0 0 0 0 0 0 0 0 127 0"/>
<feOffset dy="20"/>
<feGaussianBlur stdDeviation="23"/>
<feColorMatrix type="matrix" values="0 0 0 0 0 0 0 0 0 0 0 0 0 0 0 0 0 0 0.2 0"/>
<feBlend mode="normal" in2="BackgroundImageFix" result="effect1_dropShadow"/>
<feBlend mode="normal" in="SourceGraphic" in2="effect1_dropShadow" result="shape"/>
</filter>
</defs>
</svg>
